<?xml version="1.0" standalone="no"?><svg xmlns="http://www.w3.org/2000/svg" viewBox="0 0 1440 320"><path fill="#f3f4f5" fill-opacity="1" d="M0,192L18.5,160C36.9,128,74,64,111,42.7C147.7,21,185,43,222,85.3C258.5,128,295,192,332,213.3C369.2,235,406,213,443,176C480,139,517,85,554,80C590.8,75,628,117,665,138.7C701.5,160,738,160,775,133.3C812.3,107,849,53,886,74.7C923.1,96,960,192,997,197.3C1033.8,203,1071,117,1108,80C1144.6,43,1182,53,1218,53.3C1255.4,53,1292,43,1329,58.7C1366.2,75,1403,117,1422,138.7L1440,160L1440,320L1421.5,320C1403.1,320,1366,320,1329,320C1292.3,320,1255,320,1218,320C1181.5,320,1145,320,1108,320C1070.8,320,1034,320,997,320C960,320,923,320,886,320C849.2,320,812,320,775,320C738.5,320,702,320,665,320C627.7,320,591,320,554,320C516.9,320,480,320,443,320C406.2,320,369,320,332,320C295.4,320,258,320,222,320C184.6,320,148,320,111,320C73.8,320,37,320,18,320L0,320Z"></path></svg>