<?xml version="1.0" standalone="no"?><svg xmlns="http://www.w3.org/2000/svg" viewBox="0 0 1440 320"><path fill="#f3f4f5" fill-opacity="1" d="M0,288L30,288C60,288,120,288,180,250.7C240,213,300,139,360,117.3C420,96,480,128,540,133.3C600,139,660,117,720,138.7C780,160,840,224,900,229.3C960,235,1020,181,1080,138.7C1140,96,1200,64,1260,90.7C1320,117,1380,203,1410,245.3L1440,288L1440,0L1410,0C1380,0,1320,0,1260,0C1200,0,1140,0,1080,0C1020,0,960,0,900,0C840,0,780,0,720,0C660,0,600,0,540,0C480,0,420,0,360,0C300,0,240,0,180,0C120,0,60,0,30,0L0,0Z"></path></svg>