<svg xmlns="http://www.w3.org/2000/svg" viewBox="0 0 1440 320">
  <path fill="#f3f4f5" fill-opacity="1" d="M0,32L6.9,32C13.7,32,27,32,41,26.7C54.9,21,69,11,82,26.7C96,43,110,85,123,133.3C137.1,181,151,235,165,218.7C178.3,203,192,117,206,90.7C219.4,64,233,96,247,138.7C260.6,181,274,235,288,229.3C301.7,224,315,160,329,138.7C342.9,117,357,139,370,160C384,181,398,203,411,197.3C425.1,192,439,160,453,133.3C466.3,107,480,85,494,90.7C507.4,96,521,128,535,165.3C548.6,203,562,245,576,250.7C589.7,256,603,224,617,218.7C630.9,213,645,235,658,208C672,181,686,107,699,85.3C713.1,64,727,96,741,138.7C754.3,181,768,235,782,218.7C795.4,203,809,117,823,90.7C836.6,64,850,96,864,138.7C877.7,181,891,235,905,266.7C918.9,299,933,309,946,277.3C960,245,974,171,987,165.3C1001.1,160,1015,224,1029,224C1042.3,224,1056,160,1070,117.3C1083.4,75,1097,53,1111,53.3C1124.6,53,1138,75,1152,90.7C1165.7,107,1179,117,1193,133.3C1206.9,149,1221,171,1234,165.3C1248,160,1262,128,1275,96C1289.1,64,1303,32,1317,37.3C1330.3,43,1344,85,1358,90.7C1371.4,96,1385,64,1399,64C1412.6,64,1426,96,1433,112L1440,128L1440,320L1433.1,320C1426.3,320,1413,320,1399,320C1385.1,320,1371,320,1358,320C1344,320,1330,320,1317,320C1302.9,320,1289,320,1275,320C1261.7,320,1248,320,1234,320C1220.6,320,1207,320,1193,320C1179.4,320,1166,320,1152,320C1138.3,320,1125,320,1111,320C1097.1,320,1083,320,1070,320C1056,320,1042,320,1029,320C1014.9,320,1001,320,987,320C973.7,320,960,320,946,320C932.6,320,919,320,905,320C891.4,320,878,320,864,320C850.3,320,837,320,823,320C809.1,320,795,320,782,320C768,320,754,320,741,320C726.9,320,713,320,699,320C685.7,320,672,320,658,320C644.6,320,631,320,617,320C603.4,320,590,320,576,320C562.3,320,549,320,535,320C521.1,320,507,320,494,320C480,320,466,320,453,320C438.9,320,425,320,411,320C397.7,320,384,320,370,320C356.6,320,343,320,329,320C315.4,320,302,320,288,320C274.3,320,261,320,247,320C233.1,320,219,320,206,320C192,320,178,320,165,320C150.9,320,137,320,123,320C109.7,320,96,320,82,320C68.6,320,55,320,41,320C27.4,320,14,320,7,320L0,320Z"></path>
</svg>