<svg xmlns="http://www.w3.org/2000/svg" viewBox="0 0 1440 320">
  <path fill="#f3f4f5" fill-opacity="1" d="M0,32L12,58.7C24,85,48,139,72,160C96,181,120,171,144,149.3C168,128,192,96,216,80C240,64,264,64,288,85.3C312,107,336,149,360,181.3C384,213,408,235,432,213.3C456,192,480,128,504,106.7C528,85,552,107,576,133.3C600,160,624,192,648,186.7C672,181,696,139,720,122.7C744,107,768,117,792,149.3C816,181,840,235,864,218.7C888,203,912,117,936,74.7C960,32,984,32,1008,74.7C1032,117,1056,203,1080,208C1104,213,1128,139,1152,133.3C1176,128,1200,192,1224,229.3C1248,267,1272,277,1296,282.7C1320,288,1344,288,1368,245.3C1392,203,1416,117,1428,74.7L1440,32L1440,320L1428,320C1416,320,1392,320,1368,320C1344,320,1320,320,1296,320C1272,320,1248,320,1224,320C1200,320,1176,320,1152,320C1128,320,1104,320,1080,320C1056,320,1032,320,1008,320C984,320,960,320,936,320C912,320,888,320,864,320C840,320,816,320,792,320C768,320,744,320,720,320C696,320,672,320,648,320C624,320,600,320,576,320C552,320,528,320,504,320C480,320,456,320,432,320C408,320,384,320,360,320C336,320,312,320,288,320C264,320,240,320,216,320C192,320,168,320,144,320C120,320,96,320,72,320C48,320,24,320,12,320L0,320Z"></path>
</svg>